<svg xmlns="http://www.w3.org/2000/svg" width="168" height="168" viewBox="0 0 168 168">
  <path fill="#1DB954" d="M83.996 0C37.747 0 0 37.746 0 84c0 46.251 37.747 84 83.996 84 46.254 0 84.004-37.749 84.004-84 0-46.254-37.75-84-84.004-84zm38.508 121.426c-1.505 2.467-4.718 3.24-7.177 1.737-19.665-12.019-44.414-14.734-73.567-8.075-2.809.644-5.609-1.117-6.249-3.925-.643-2.809 1.11-5.609 3.926-6.249 31.9-7.293 59.263-4.154 81.336 9.334 2.46 1.51 3.24 4.72 1.731 7.178zm10.27-22.845c-1.89 3.075-5.91 4.045-8.98 2.155-22.51-13.839-56.823-17.846-83.448-9.764-3.453 1.043-7.1-.903-8.148-4.35-1.04-3.453.907-7.093 4.354-8.143 30.413-9.228 68.222-4.758 94.072 11.127 3.07 1.89 4.04 5.91 2.15 8.976zm.88-23.744c-26.994-16.031-71.52-17.505-97.289-9.684-4.138 1.255-8.514-1.081-9.768-5.219-1.254-4.14 1.08-8.513 5.221-9.771 29.581-8.98 78.756-7.245 109.83 11.202 3.73 2.209 4.95 7.016 2.74 10.733-2.2 3.722-7.02 4.949-10.737 2.739z"/>
</svg> 